<?xml version="1.0" encoding="UTF-8"?>
<svg id="Layer_2" data-name="Layer 2" xmlns="http://www.w3.org/2000/svg" viewBox="0 0 17 17">
  <defs>
    <style>
      .cls-1 {
        fill: #ed2024;
      }

      .cls-2 {
        fill: #fff;
      }
    </style>
  </defs>
  <g id="Layer_1-2" data-name="Layer 1">
    <g>
      <circle class="cls-1" cx="8.5" cy="8.5" r="8.5"/>
      <path class="cls-2" d="m9.27,8.5l2.29-2.29c.21-.21.21-.56,0-.77-.21-.21-.56-.21-.77,0l-2.29,2.29-2.29-2.29c-.21-.21-.56-.21-.77,0-.21.21-.21.56,0,.77l2.29,2.29-2.29,2.29c-.21.21-.21.56,0,.77.11.11.25.16.39.16s.28-.05.39-.16l2.29-2.29,2.29,2.29c.11.11.25.16.39.16s.28-.05.39-.16c.21-.21.21-.56,0-.77l-2.29-2.29Z"/>
    </g>
  </g>
</svg>