<?xml version="1.0" encoding="utf-8"?>
<!-- Generator: Adobe Illustrator 27.7.0, SVG Export Plug-In . SVG Version: 6.00 Build 0)  -->
<svg version="1.1" id="Layer_1" xmlns="http://www.w3.org/2000/svg" xmlns:xlink="http://www.w3.org/1999/xlink" x="0px" y="0px"
	 viewBox="0 0 30 30" style="enable-background:new 0 0 30 30;" xml:space="preserve">
<style type="text/css">
	.st0{fill:#7D2AE7;}
	.st1{fill:url(#SVGID_1_);}
	.st2{fill:url(#SVGID_00000006692183142628292900000015668834183579997626_);}
	.st3{fill:url(#SVGID_00000125596751409748261020000004692720894765224097_);}
	.st4{fill:url(#SVGID_00000149345211245012761290000011676665031167711107_);}
	.st5{fill:#FFFFFF;}
</style>
<g>
	<circle class="st0" cx="15" cy="15" r="15"/>
	
		<radialGradient id="SVGID_1_" cx="-523.3422" cy="556.4177" r="1.578947e-02" gradientTransform="matrix(955.9946 -1116.0085 -1116.0085 -955.9946 1121284.875 -52095.4844)" gradientUnits="userSpaceOnUse">
		<stop  offset="0" style="stop-color:#6420FF"/>
		<stop  offset="1" style="stop-color:#6420FF;stop-opacity:0"/>
	</radialGradient>
	<circle class="st1" cx="15" cy="15" r="15"/>
	
		<radialGradient id="SVGID_00000150080596943083415760000006808344547579620000_" cx="-523.8365" cy="555.9057" r="1.578947e-02" gradientTransform="matrix(957.5086 1352.488 1352.488 -957.5086 -250269.8438 1240770.5)" gradientUnits="userSpaceOnUse">
		<stop  offset="0" style="stop-color:#00C4CC"/>
		<stop  offset="1" style="stop-color:#00C4CC;stop-opacity:0"/>
	</radialGradient>
	<circle style="fill:url(#SVGID_00000150080596943083415760000006808344547579620000_);" cx="15" cy="15" r="15"/>
	
		<radialGradient id="SVGID_00000109726590678499256730000005114028671877446292_" cx="-523.367" cy="557.0233" r="1.578947e-02" gradientTransform="matrix(1023.0002 -1030.0017 -473.7114 -470.4913 799278.625 -276967.7188)" gradientUnits="userSpaceOnUse">
		<stop  offset="0" style="stop-color:#6420FF"/>
		<stop  offset="1" style="stop-color:#6420FF;stop-opacity:0"/>
	</radialGradient>
	<circle style="fill:url(#SVGID_00000109726590678499256730000005114028671877446292_);" cx="15" cy="15" r="15"/>
	
		<radialGradient id="SVGID_00000016756225334548729290000010659725385938502585_" cx="-523.8973" cy="555.8687" r="1.578947e-02" gradientTransform="matrix(595.9987 1371.9995 2298.406 -998.4311 -965357.4375 1273787.375)" gradientUnits="userSpaceOnUse">
		<stop  offset="0" style="stop-color:#00C4CC;stop-opacity:0.7259"/>
		<stop  offset="1.000000e-04" style="stop-color:#00C4CC"/>
		<stop  offset="1" style="stop-color:#00C4CC;stop-opacity:0"/>
	</radialGradient>
	<circle style="fill:url(#SVGID_00000016756225334548729290000010659725385938502585_);" cx="15" cy="15" r="15"/>
	<path class="st5" d="M22,18.1c-0.1,0-0.2,0.1-0.3,0.3c-1.3,2.6-3.5,4.4-6.1,4.4c-3,0-4.8-2.7-4.8-6.4c0-6.3,3.5-9.9,6.5-9.9
		c1.4,0,2.3,0.9,2.3,2.3c0,1.7-1,2.6-1,3.2c0,0.3,0.2,0.4,0.5,0.4c1.3,0,2.9-1.5,2.9-3.7c0-2.1-1.8-3.6-4.9-3.6
		c-5.1,0-9.5,4.7-9.5,11.2c0,5,2.9,8.3,7.3,8.3c4.7,0,7.4-4.7,7.4-6.2C22.3,18.2,22.2,18.1,22,18.1L22,18.1z"/>
</g>
</svg>
